<svg xmlns="http://www.w3.org/2000/svg" viewBox="0 0 115 136.36"><defs><style>.cls-1{fill:#39b54a;}</style></defs><title>Asset 3</title><g id="Layer_2" data-name="Layer 2"><g id="Layer_1-2" data-name="Layer 1"><path class="cls-1" d="M108.77,59,46.44,17.56c.65,0,1.34,0,2.11,0H77.82c4,0,8.76-2.46,8.76-8.76C86.58,2.1,81.68,0,77.82,0H48C34.53,0,27,4.73,21,16.83L4.91,49.25C1.4,56.26,0,61,0,68.71c0,6.83,1.75,12.44,4.73,18.4l16.13,32.6C26.47,131.1,34,136.36,47.15,136.36H77.82c4,0,8.76-2.46,8.76-8.76,0-6.66-4.9-8.77-8.76-8.77H49.25c-1.16,0-2.18,0-3.1-.06l62.61-41.59C112.47,74.83,115,73,115,68.1,115.16,63.38,112.47,61.36,108.77,59ZM33.3,105.41,21.21,80.8c-2.1-4.21-3.68-7.19-3.68-12.09,0-5.43,1.4-8.59,3.68-13.32L33.42,31l56,37.12Z"/></g></g></svg>